<?xml version="1.0"?>
<svg xmlns="http://www.w3.org/2000/svg" height="512px" viewBox="-32 0 448 448" width="512px" class=""><g><path d="m192 64c-106.039062 0-192 85.960938-192 192s85.960938 192 192 192 192-85.960938 192-192c-.125-105.988281-86.011719-191.875-192-192zm0 368c-97.203125 0-176-78.796875-176-176s78.796875-176 176-176 176 78.796875 176 176c-.109375 97.15625-78.84375 175.890625-176 176zm0 0" data-original="#000000" class="active-path" data-old_color="#ffffff" fill="#ffffff"/><path d="m200 256c0 4.417969-3.582031 8-8 8s-8-3.582031-8-8 3.582031-8 8-8 8 3.582031 8 8zm0 0" data-original="#000000" class="active-path" data-old_color="#ffffff" fill="#ffffff"/><path d="m192 96c-88.367188 0-160 71.632812-160 160s71.632812 160 160 160 160-71.632812 160-160c-.101562-88.324219-71.675781-159.898438-160-160zm0 32c5.703125 0 11.402344.375 17.054688 1.128906l-2.109376 15.855469c-4.957031-.65625-9.949218-.984375-14.945312-.984375zm58.34375 197.65625-48.0625-48.054688c-3.203125 1.5625-6.71875 2.382813-10.28125 2.398438-13.253906 0-24-10.746094-24-24s10.746094-24 24-24 24 10.746094 24 24c-.015625 3.5625-.835938 7.078125-2.398438 10.28125l48.0625 48.0625zm44.335938-24.855469c12.96875-29.765625 12.394531-63.6875-1.566407-92.996093-13.964843-29.308594-39.949219-51.125-71.234375-59.804688l4.257813-15.425781c55.417969 15.449219 93.78125 65.894531 93.863281 123.425781.039062 17.621094-3.589844 35.058594-10.65625 51.199219zm0 0" data-original="#000000" class="active-path" data-old_color="#ffffff" fill="#ffffff"/><path d="m44.960938 97.601562-11.359376 11.359376 5.832032 5.832031c3.621094-3.921875 7.394531-7.695313 11.328125-11.328125zm0 0" data-original="#000000" class="active-path" data-old_color="#ffffff" fill="#ffffff"/><path d="m192 48c2.679688 0 5.34375.105469 8 .199219v-16.199219h-16v16.199219c2.65625-.09375 5.320312-.199219 8-.199219zm0 0" data-original="#000000" class="active-path" data-old_color="#ffffff" fill="#ffffff"/><path d="m160 0h64.007812v16h-64.007812zm0 0" data-original="#000000" class="active-path" data-old_color="#ffffff" fill="#ffffff"/><path d="m333.207031 103.464844c3.921875 3.621094 7.695313 7.398437 11.328125 11.328125l5.832032-5.832031-11.328126-11.359376zm0 0" data-original="#000000" class="active-path" data-old_color="#ffffff" fill="#ffffff"/></g> </svg>
