<?xml version="1.0"?>
<svg xmlns="http://www.w3.org/2000/svg" xmlns:xlink="http://www.w3.org/1999/xlink" width="512px" height="512px" viewBox="0 0 56 56" version="1.1" class=""><g><title class="active-path" style="fill:#FFFFFF" data-old_color="#F6E8E8">007 - Car Insurance</title><desc class="active-path" style="fill:#FFFFFF" data-old_color="#F6E8E8">Created with Sketch.</desc><defs class="active-path" style="fill:#FFFFFF" data-old_color="#F6E8E8"/><g id="Page-1" stroke="none" stroke-width="1" fill="none" fill-rule="evenodd"><g id="007---Car-Insurance" fill="#000000" fill-rule="nonzero"><rect id="Rectangle-path" x="5" y="47" width="2" height="2" data-original="#000000" class="active-path" data-old_color="#F6E8E8" fill="#ffffff"/><path d="M4,51 L3,51 L3,55 C3,55.5522847 3.44771525,56 4,56 L10,56 C10.5522847,56 11,55.5522847 11,55 L11,51 L4,51 Z" id="Shape" data-original="#000000" class="active-path" data-old_color="#F6E8E8" fill="#ffffff"/><path d="M39,51 L39,55 C39,55.5522847 39.4477153,56 40,56 L46,56 C46.5522847,56 47,55.5522847 47,55 L47,51 L39,51 Z" id="Shape" data-original="#000000" class="active-path" data-old_color="#F6E8E8" fill="#ffffff"/><path d="M32.289,27.782 C29.6080237,25.8780755 28.0108094,22.7972284 28,19.509 L28,19 L21,19 C19.8954305,19 19,18.1045695 19,17 L19,15 C19,13.8954305 19.8954305,13 21,13 L24,13 L24,11 L12.87,11 C11.5991748,11.0006046 10.4666083,11.8018543 10.043,13 L4.412,29 L34,29 L32.289,27.782 Z M16,15 L14.289,15 C13.8648006,15.0001185 13.4868342,15.2678614 13.346,15.668 L9.592,26.332 C9.45104401,26.7324849 9.07256645,27.0003059 8.648,27 C8.32366413,26.9999094 8.019516,26.8425262 7.83211041,26.5778134 C7.64470482,26.3131005 7.59732047,25.9739393 7.705,25.668 L11.459,15 C11.884726,13.802142 13.017739,13.0014261 14.289,13 L16,13 C16.5522847,13 17,13.4477153 17,14 C17,14.5522847 16.5522847,15 16,15 Z" id="Shape" data-original="#000000" class="active-path" data-old_color="#F6E8E8" fill="#ffffff"/><rect id="Rectangle-path" x="26" y="11" width="2" height="2" data-original="#000000" class="active-path" data-old_color="#F6E8E8" fill="#ffffff"/><path d="M5,39 L11,39 C11.5522847,39 12,38.5522847 12,38 C12,36.3431458 10.6568542,35 9,35 L5,35 C4.44771525,35 4,35.4477153 4,36 L4,38 C4,38.5522847 4.44771525,39 5,39 Z" id="Shape" data-original="#000000" class="active-path" data-old_color="#F6E8E8" fill="#ffffff"/><rect id="Rectangle-path" x="21" y="15" width="7" height="2" data-original="#000000" class="active-path" data-old_color="#F6E8E8" fill="#ffffff"/><rect id="Rectangle-path" x="43" y="47" width="2" height="2" data-original="#000000" class="active-path" data-old_color="#F6E8E8" fill="#ffffff"/><path d="M35.769,22.894 L43,28.042 L50.231,22.9 C51.3337961,22.1217704 51.9926973,20.8587211 52,19.509 L52,8.334 L43,4.447 L34,8.334 L34,19.509 C34.0087381,20.8567225 34.6675346,22.1173365 35.769,22.894 Z M36.2,17.4 C36.3591299,17.1878268 36.5960277,17.0475578 36.8585786,17.0100505 C37.1211296,16.9725432 37.3878268,17.0408701 37.6,17.2 L40.824,19.619 L48.224,10.375 C48.569178,9.94366564 49.1986656,9.87382207 49.63,10.219 C50.0613344,10.564178 50.1311779,11.1936656 49.786,11.625 L41.786,21.625 C41.4480849,22.0498661 40.8329157,22.1275389 40.4,21.8 L36.4,18.8 C36.1878268,18.6408701 36.0475578,18.4039723 36.0100505,18.1414214 C35.9725432,17.8788704 36.0408701,17.6121732 36.2,17.4 Z" id="Shape" data-original="#000000" class="active-path" data-old_color="#F6E8E8" fill="#ffffff"/><path d="M41,35 C39.3431458,35 38,36.3431458 38,38 C38,38.5522847 38.4477153,39 39,39 L45,39 C45.5522847,39 46,38.5522847 46,38 L46,36 C46,35.4477153 45.5522847,35 45,35 L41,35 Z" id="Shape" data-original="#000000" class="active-path" data-old_color="#F6E8E8" fill="#ffffff"/><path d="M33.449,26.153 L43,32.952 L52.551,26.152 C54.7053669,24.6240398 55.9897757,22.1501843 56,19.509 L56,5.705 L43,0.089 L30,5.705 L30,19.505 C30.0086121,22.1479513 31.2932006,24.6240152 33.449,26.153 Z M32,7.677 C31.999409,7.27883898 32.2350788,6.91826415 32.6,6.759 L42.6,2.439 C42.8527492,2.33000068 43.1392508,2.33000068 43.392,2.439 L53.392,6.759 C53.7569212,6.91826415 53.992591,7.27883898 53.992,7.677 L53.992,19.509 C53.9825824,21.5032302 53.0114082,23.3703573 51.384,24.523 L43.58,30.084 C43.2328357,30.331178 42.7671643,30.331178 42.42,30.084 L34.608,24.523 C32.9807205,23.3702451 32.0095833,21.5031892 32,19.509 L32,7.677 Z" id="Shape" data-original="#000000" class="active-path" data-old_color="#F6E8E8" fill="#ffffff"/><path d="M3,49 L3,47 C3,45.8954305 3.8954305,45 5,45 L7,45 C8.1045695,45 9,45.8954305 9,47 L9,49 L41,49 L41,47 C41,45.8954305 41.8954305,45 43,45 L45,45 C46.1045695,45 47,45.8954305 47,47 L47,49 L50.0000323,49 L50,34 C50.0048731,32.9548476 49.4578368,31.9847039 48.561,31.448 L46.085,33.211 C47.2366501,33.6577505 47.9967362,34.7647376 48,36 L48,38 C48,39.6568542 46.6568542,41 45,41 L39,41 C37.3431458,41 36,39.6568542 36,38 C36.006305,35.6936025 37.5894037,33.6907678 39.832,33.152 L36.81,31 L3,31 C1.34314575,31 4.4408921e-16,32.3431458 0,34 L0,49 L3,49 Z M16,41 C16,39.8954305 16.8954305,39 18,39 L32,39 C33.1045695,39 34,39.8954305 34,41 L34,45 C34,46.1045695 33.1045695,47 32,47 L18,47 C16.8954305,47 16,46.1045695 16,45 L16,41 Z M2,36 C2,34.3431458 3.34314575,33 5,33 L9,33 C11.7600532,33.0033061 13.9966939,35.2399468 14,38 C14,39.6568542 12.6568542,41 11,41 L5,41 C3.34314575,41 2,39.6568542 2,38 L2,36 Z" id="Shape" data-original="#000000" class="active-path" data-old_color="#F6E8E8" fill="#ffffff"/><rect id="Rectangle-path" x="18" y="41" width="14" height="4" data-original="#000000" class="active-path" data-old_color="#F6E8E8" fill="#ffffff"/></g></g></g> </svg>
