<?xml version="1.0"?>
<svg xmlns="http://www.w3.org/2000/svg" xmlns:xlink="http://www.w3.org/1999/xlink" version="1.1" id="Layer_1" x="0px" y="0px" viewBox="0 0 511.983 511.983" style="enable-background:new 0 0 511.983 511.983;" xml:space="preserve" width="512px" height="512px" class=""><g><g id="XMLID_130_">
	<path id="XMLID_131_" d="M484.092,331.723c6.022-6.023,8.318-15.121,5.904-23.289c-2.45-8.297-8.938-14.326-17.354-16.129   c-19.594-4.194-37.475-13.936-51.708-28.17l-53.283-53.283c0.256-1.225,0.396-2.484,0.396-3.765c0-4.868-1.896-9.445-5.339-12.888   l-29.186-29.185c-11.052-11.053-25.746-17.14-41.376-17.14s-30.324,6.087-41.376,17.139l-8.814,8.814l-28.069-28.069   c-11.287-11.286-29.653-11.286-40.944,0l-5.12,5.12l-48.039-48.039c-2.93-2.928-7.678-2.928-10.607,0   c-2.929,2.93-2.929,7.678,0,10.607l48.039,48.039l-28.469,28.47L20.88,82.09c-7.849-7.85-7.85-20.621,0-28.47   c3.802-3.803,8.857-5.896,14.234-5.896c5.378,0,10.433,2.094,14.234,5.896l35.417,35.416c2.93,2.928,7.678,2.928,10.607,0   c2.929-2.93,2.929-7.678,0-10.607L59.956,43.014c-6.636-6.636-15.457-10.29-24.842-10.29c-9.384,0-18.206,3.654-24.842,10.289   c-13.696,13.697-13.696,35.984,0,49.684l107.867,107.867l-5.119,5.119c-5.469,5.468-8.48,12.738-8.48,20.473   c0,7.733,3.012,15.004,8.479,20.472l28.068,28.068l-8.814,8.814c-11.051,11.052-17.138,25.746-17.138,41.376   s6.087,30.324,17.138,41.376l29.187,29.186c3.554,3.553,8.221,5.329,12.888,5.329c1.833,0,3.663-0.284,5.428-0.832   c54.369,54.346,54.923,54.869,55.102,55.039c9.939,9.399,21.568,16.268,34.563,20.416c9.201,2.937,13.777-11.347,4.563-14.289   c-10.833-3.458-20.528-9.187-28.763-16.972c-0.869-0.848-20.733-20.691-53.376-53.321l28.101-28.101   c15.37,15.363,52.889,52.863,53.623,53.556c16.933,16.011,39.047,24.753,62.488,24.753c0.744,0,1.49-0.009,2.236-0.026   c5.88-0.139,11.672-0.831,17.321-2.032l-2.786,2.786c-12.687,12.686-29.512,20.692-47.376,22.545   c-4.12,0.428-7.114,4.113-6.687,8.233c0.4,3.857,3.656,6.728,7.451,6.728c0.258,0,0.52-0.014,0.782-0.041   c21.279-2.207,41.321-11.745,56.436-26.857L484.092,331.723z M319.37,263.311c15.368,15.362,52.889,52.863,53.623,53.556   c15.084,14.263,34.862,22.964,55.691,24.501c2.254,0.166,4.511,0.249,6.765,0.249c6.606,0,13.193-0.717,19.634-2.101L441.25,353.35   c-14.326,14.322-33.357,22.472-53.589,22.951c-20.309,0.481-39.487-6.846-54.011-20.579c-1.18-1.15-33.983-33.931-53.375-53.315   L319.37,263.311z M469.501,306.973c4.262,0.912,5.692,4.297,6.11,5.71c0.266,0.901,0.366,1.808,0.343,2.701   c-13.808,8.306-30.082,12.202-46.166,11.026c-17.649-1.303-33.725-8.371-46.437-20.391c-1.18-1.15-33.984-33.931-53.375-53.315   l29.155-29.155l51.194,51.194C426.61,291.025,447.073,302.171,469.501,306.973z M172.066,384.84l-29.186-29.186   c-8.219-8.218-12.745-19.146-12.745-30.769s4.526-22.551,12.745-30.769l29.289-29.289c2.929-2.93,2.929-7.678,0-10.607   c-2.93-2.928-7.678-2.928-10.607,0l-9.867,9.867l-28.069-28.068c-2.635-2.635-4.086-6.138-4.086-9.864   c0-3.728,1.451-7.23,4.087-9.865l59.922-59.924c5.441-5.438,14.293-5.439,19.73,0l28.069,28.069l-45.374,45.374   c-2.929,2.93-2.929,7.678,0,10.607c2.93,2.928,7.678,2.928,10.607,0l64.796-64.796c8.219-8.219,19.146-12.745,30.769-12.745   s22.551,4.526,30.769,12.746l29.187,29.186c0.822,0.822,0.945,1.781,0.945,2.28s-0.123,1.458-0.946,2.28L176.628,384.84   C175.37,386.098,173.324,386.098,172.066,384.84z M391.56,403.04c-0.001,0.001-0.002,0.002-0.004,0.003   c-14.327,14.327-33.362,22.481-53.599,22.96c-20.319,0.473-39.488-6.848-54.011-20.579c-1.18-1.15-33.983-33.931-53.375-53.315   l39.096-39.096c15.37,15.363,52.89,52.863,53.623,53.557c16.934,16.012,39.046,24.753,62.489,24.753   c0.742,0,1.49-0.009,2.235-0.026c5.879-0.139,11.671-0.831,17.32-2.031L391.56,403.04z" data-original="#000000" class="active-path" data-old_color="#1498C3" fill="#159BC6"/>
	<path id="XMLID_137_" d="M216.41,270.336c1.919,0,3.839-0.732,5.304-2.196l13.686-13.686c2.929-2.93,2.929-7.678,0-10.607   c-2.93-2.928-7.678-2.928-10.607,0l-13.686,13.686c-2.929,2.93-2.929,7.678,0,10.607   C212.571,269.603,214.491,270.336,216.41,270.336z" data-original="#000000" class="active-path" data-old_color="#1498C3" fill="#159BC6"/>
	<path id="XMLID_138_" d="M442.656,208.559c0.008,0,0.015,0,0.021,0c4.132,0,7.488-3.344,7.5-7.479l0.014-4.738   c0.012-4.142-3.336-7.51-7.479-7.521c-0.008,0-0.015,0-0.021,0c-4.132,0-7.488,3.344-7.5,7.479l-0.014,4.738   C435.166,205.18,438.513,208.548,442.656,208.559z" data-original="#000000" class="active-path" data-old_color="#1498C3" fill="#159BC6"/>
	<path id="XMLID_139_" d="M442.622,220.1c-0.008,0-0.015,0-0.021,0c-4.132,0-7.488,3.344-7.5,7.479l-0.014,4.738   c-0.012,4.142,3.336,7.51,7.479,7.521c0.008,0,0.015,0,0.021,0c4.132,0,7.488-3.344,7.5-7.479l0.014-4.738   C450.112,223.48,446.764,220.112,442.622,220.1z" data-original="#000000" class="active-path" data-old_color="#1498C3" fill="#159BC6"/>
	<path id="XMLID_140_" d="M455.888,221.869l4.737,0.014c0.008,0,0.015,0,0.021,0c4.132,0,7.488-3.344,7.5-7.479   c0.012-4.142-3.336-7.51-7.479-7.521l-4.737-0.014c-0.008,0-0.015,0-0.021,0c-4.132,0-7.488,3.344-7.5,7.479   C448.398,218.489,451.746,221.857,455.888,221.869z" data-original="#000000" class="active-path" data-old_color="#1498C3" fill="#159BC6"/>
	<path id="XMLID_141_" d="M424.63,206.778c-4.132,0-7.488,3.344-7.5,7.479c-0.012,4.142,3.336,7.51,7.479,7.521l4.738,0.014   c0.008,0,0.015,0,0.021,0c4.132,0,7.488-3.344,7.5-7.479c0.012-4.142-3.336-7.51-7.479-7.521l-4.738-0.014   C424.643,206.778,424.636,206.778,424.63,206.778z" data-original="#000000" class="active-path" data-old_color="#1498C3" fill="#159BC6"/>
	<path id="XMLID_142_" d="M486.527,393.554c-4.132,0-7.488,3.344-7.5,7.479l-0.014,4.737c-0.012,4.142,3.336,7.51,7.479,7.521   c0.008,0,0.015,0,0.021,0c4.132,0,7.488-3.344,7.5-7.479l0.014-4.737c0.012-4.142-3.336-7.51-7.479-7.521   C486.541,393.554,486.534,393.554,486.527,393.554z" data-original="#000000" class="active-path" data-old_color="#1498C3" fill="#159BC6"/>
	<path id="XMLID_143_" d="M486.46,424.833c-0.009,0-0.016,0-0.024,0c-4.131,0-7.486,3.343-7.499,7.477l-0.015,4.737   c-0.013,4.143,3.335,7.511,7.477,7.523c0.009,0,0.016,0,0.024,0c4.131,0,7.486-3.343,7.499-7.477l0.015-4.737   C493.949,428.214,490.601,424.846,486.46,424.833z" data-original="#000000" class="active-path" data-old_color="#1498C3" fill="#159BC6"/>
	<path id="XMLID_144_" d="M504.505,411.614l-4.738-0.014c-0.008,0-0.015,0-0.021,0c-4.132,0-7.488,3.344-7.5,7.479   c-0.012,4.142,3.336,7.51,7.479,7.521l4.738,0.014c0.008,0,0.015,0,0.021,0c4.132,0,7.488-3.344,7.5-7.479   C511.995,414.994,508.647,411.626,504.505,411.614z" data-original="#000000" class="active-path" data-old_color="#1498C3" fill="#159BC6"/>
	<path id="XMLID_145_" d="M473.225,411.523l-4.738-0.014c-0.008,0-0.015,0-0.021,0c-4.132,0-7.488,3.344-7.5,7.479   c-0.012,4.142,3.336,7.51,7.479,7.521l4.738,0.014c0.008,0,0.015,0,0.021,0c4.132,0,7.488-3.344,7.5-7.479   C480.716,414.903,477.368,411.535,473.225,411.523z" data-original="#000000" class="active-path" data-old_color="#1498C3" fill="#159BC6"/>
	<path id="XMLID_146_" d="M146.84,438.322c0.008,0,0.015,0,0.021,0c4.132,0,7.488-3.344,7.5-7.479l0.014-4.737   c0.012-4.142-3.336-7.51-7.479-7.521c-0.008,0-0.015,0-0.021,0c-4.132,0-7.488,3.344-7.5,7.479l-0.014,4.737   C139.349,434.942,142.697,438.31,146.84,438.322z" data-original="#000000" class="active-path" data-old_color="#1498C3" fill="#159BC6"/>
	<path id="XMLID_147_" d="M146.805,449.864c-0.008,0-0.015,0-0.021,0c-4.132,0-7.488,3.344-7.5,7.479l-0.014,4.737   c-0.012,4.142,3.336,7.51,7.479,7.521c0.008,0,0.015,0,0.021,0c4.132,0,7.488-3.344,7.5-7.479l0.014-4.737   C154.296,453.244,150.948,449.876,146.805,449.864z" data-original="#000000" class="active-path" data-old_color="#1498C3" fill="#159BC6"/>
	<path id="XMLID_148_" d="M164.852,436.645l-4.737-0.014c-0.008,0-0.015,0-0.021,0c-4.132,0-7.488,3.344-7.5,7.479   c-0.012,4.142,3.336,7.51,7.479,7.521l4.737,0.014c0.008,0,0.015,0,0.021,0c4.132,0,7.488-3.344,7.5-7.479   C172.343,440.025,168.995,436.657,164.852,436.645z" data-original="#000000" class="active-path" data-old_color="#1498C3" fill="#159BC6"/>
	<path id="XMLID_149_" d="M133.573,436.555l-4.738-0.014c-0.008,0-0.015,0-0.021,0c-4.132,0-7.488,3.344-7.5,7.479   c-0.012,4.142,3.336,7.51,7.479,7.521l4.738,0.014c0.008,0,0.015,0,0.021,0c4.132,0,7.488-3.344,7.5-7.479   C141.063,439.934,137.716,436.566,133.573,436.555z" data-original="#000000" class="active-path" data-old_color="#1498C3" fill="#159BC6"/>
	<path id="XMLID_150_" d="M401.542,145.439c0.009,0,0.016,0,0.024,0c4.131,0,7.486-3.343,7.499-7.477l0.015-4.738   c0.013-4.143-3.335-7.511-7.477-7.523c-0.009,0-0.016,0-0.024,0c-4.131,0-7.486,3.343-7.499,7.477l-0.015,4.738   C394.052,142.058,397.4,145.427,401.542,145.439z" data-original="#000000" class="active-path" data-old_color="#1498C3" fill="#159BC6"/>
	<path id="XMLID_151_" d="M401.51,156.98c-0.008,0-0.015,0-0.021,0c-4.132,0-7.488,3.344-7.5,7.479l-0.014,4.738   c-0.012,4.142,3.336,7.51,7.479,7.521c0.008,0,0.015,0,0.021,0c4.132,0,7.488-3.344,7.5-7.479l0.014-4.738   C409,160.36,405.652,156.992,401.51,156.98z" data-original="#000000" class="active-path" data-old_color="#1498C3" fill="#159BC6"/>
	<path id="XMLID_152_" d="M414.776,158.749l4.738,0.014c0.008,0,0.015,0,0.021,0c4.132,0,7.488-3.344,7.5-7.479   c0.012-4.142-3.336-7.51-7.479-7.521l-4.738-0.014c-0.008,0-0.015,0-0.021,0c-4.132,0-7.488,3.344-7.5,7.479   C407.286,155.369,410.634,158.737,414.776,158.749z" data-original="#000000" class="active-path" data-old_color="#1498C3" fill="#159BC6"/>
	<path id="XMLID_153_" d="M383.497,158.658l4.738,0.014c0.008,0,0.015,0,0.021,0c4.132,0,7.488-3.344,7.5-7.479   c0.012-4.142-3.336-7.51-7.479-7.521l-4.738-0.014c-0.008,0-0.015,0-0.021,0c-4.132,0-7.488,3.344-7.5,7.479   C376.007,155.278,379.354,158.646,383.497,158.658z" data-original="#000000" class="active-path" data-old_color="#1498C3" fill="#159BC6"/>
</g></g> </svg>
