<?xml version="1.0"?>
<svg xmlns="http://www.w3.org/2000/svg" height="512px" viewBox="0 -61 512 512" width="512px" class=""><g><path d="m511.230469 190.257812c-2.863281-8.585937-57.886719-173.664062-60-180-2.042969-6.125-7.773438-10.257812-14.230469-10.257812h-392c-24.8125 0-45 20.1875-45 45v270c0 24.8125 20.1875 45 45 45h17.578125c6.195313 17.457031 22.867187 30 42.421875 30 11.515625 0 22.03125-4.355469 30-11.496094 7.96875 7.144532 18.484375 11.496094 30 11.496094 19.554688 0 36.226562-12.542969 42.421875-30h157.15625c6.195313 17.457031 22.867187 30 42.421875 30s36.226562-12.542969 42.421875-30h17.578125c24.8125 0 45-20.1875 45-45v-120c0-1.613281-.261719-3.214844-.769531-4.742188zm-301.230469-10.257812v-30h61v30zm-90 0v-30h60v30zm-90 0v-30h60v30zm271-30h61v30h-61zm91 0h74.1875l15.8125 47.433594v12.566406h-68.785156l-21.214844-21.214844zm44.1875-90h-44.1875v-30h34.1875zm-135.1875 0v-30h61v30zm-91 0v-30h61v30zm-90 0v-30h60v30zm-75-30h45v45c0 8.285156 6.714844 15 15 15h341.1875l10 30h-426.1875v-75c0-8.269531 6.730469-15 15-15zm60 330c-8.269531 0-15-6.730469-15-15s6.730469-15 15-15 15 6.730469 15 15-6.730469 15-15 15zm60 0c-8.269531 0-15-6.730469-15-15s6.730469-15 15-15 15 6.730469 15 15-6.730469 15-15 15zm242 0c-8.269531 0-15-6.730469-15-15s6.730469-15 15-15 15 6.730469 15 15-6.730469 15-15 15zm60-30h-17.578125c-6.195313-17.457031-22.867187-30-42.421875-30s-36.226562 12.542969-42.421875 30h-157.15625c-6.195313-17.457031-22.867187-30-42.421875-30-11.515625 0-22.03125 4.355469-30 11.496094-7.96875-7.140625-18.484375-11.496094-30-11.496094-19.554688 0-36.226562 12.542969-42.421875 30h-17.578125c-8.269531 0-15-6.730469-15-15v-45h287c8.285156 0 15-6.714844 15-15s-6.714844-15-15-15h-287v-30h340.785156l25.609375 25.605469c2.8125 2.816406 6.628907 4.394531 10.605469 4.394531h75v30h-15c-8.285156 0-15 6.714844-15 15s6.714844 15 15 15h15v15c0 8.269531-6.730469 15-15 15zm0 0" data-original="#000000" class="active-path" data-old_color="#ffffff" fill="#ffffff"/></g> </svg>
